<svg width="411" height="121" viewBox="0 0 411 121" fill="none" xmlns="http://www.w3.org/2000/svg">
<path d="M0 43.7639C0 19.5938 19.5938 0 43.7639 0V0H86.0425C102.883 0 119.087 6.43765 131.336 17.9949L143 29L160.635 45.7948C184.919 68.9229 223.867 66.0157 244.448 39.5386V39.5386C246.547 36.8392 248.885 34.3353 251.435 32.0575L268.536 16.7802C280.633 5.97349 296.286 0 312.507 0H350.5C383.913 0 411 27.0868 411 60.5V60.5C411 93.9132 383.913 121 350.5 121H60.5C27.0868 121 0 93.9132 0 60.5V43.7639Z" fill="#0805AE"/>
</svg>
